<svg xmlns="http://www.w3.org/2000/svg" width="129" height="129" viewBox="0 0 129 129">
  <g id="Grupo_821" data-name="Grupo 821" transform="translate(-0.001 0.083)">
    <circle id="Elipse_362" data-name="Elipse 362" cx="64.5" cy="64.5" r="64.5" transform="translate(0.001 -0.083)" fill="#f2f2f2"/>
    <path id="Icon_metro-tools" data-name="Icon metro-tools" d="M78.806,17.346A18.681,18.681,0,0,1,52.326,40.782l-5.168,5.644,3.687,3.7,2.2-2.2a2.88,2.88,0,0,1,4.078,0L75,65.974a2.88,2.88,0,0,1,0,4.078L66.84,78.208a2.88,2.88,0,0,1-4.078,0L44.893,60.157a2.88,2.88,0,0,1,0-4.078l2.012-2.012-3.514-3.523-24.711,27a5.765,5.765,0,0,1-8.156,0L8.487,75.5a5.765,5.765,0,0,1,0-8.156L36.638,43.77l-18.7-18.747-5.905,0L5.2,14.032l5.5-5.509L21.94,15.4l.073,5.782L40.927,40.171l5.5-4.607A18.7,18.7,0,0,1,68.585,7.172L56.469,19.121l10.2,10.2L78.806,17.346ZM15.25,70.223a2.884,2.884,0,1,0,0,4.081A2.885,2.885,0,0,0,15.25,70.223Z" transform="translate(21.654 22.029)" fill="#8c24a3"/>
  </g>
</svg>
