<svg xmlns="http://www.w3.org/2000/svg" width="129" height="129" viewBox="0 0 129 129">
  <g id="Grupo_823" data-name="Grupo 823" transform="translate(0.083 0.083)">
    <g id="Grupo_822" data-name="Grupo 822" transform="translate(0 0)">
      <circle id="Elipse_363" data-name="Elipse 363" cx="64.5" cy="64.5" r="64.5" transform="translate(-0.083 -0.083)" fill="#f2f2f2"/>
      <path id="Icon_awesome-hand-holding-usd" data-name="Icon awesome-hand-holding-usd" d="M38.253,21.428l7.425,2.123A1.249,1.249,0,0,1,45.336,26H40.465a3.82,3.82,0,0,1-1.53-.327,1.841,1.841,0,0,0-2.094.3l-2.6,2.6a1.781,1.781,0,0,0,.223,2.732,10.851,10.851,0,0,0,4.722,1.708v2.628a2.383,2.383,0,0,0,2.376,2.376H43.94a2.383,2.383,0,0,0,2.376-2.376V33.026a8.355,8.355,0,0,0,7.321-9.355,8.713,8.713,0,0,0-6.37-7.083l-7.425-2.123a1.249,1.249,0,0,1,.342-2.45h4.871a3.82,3.82,0,0,1,1.53.327,1.841,1.841,0,0,0,2.094-.3l2.6-2.6a1.781,1.781,0,0,0-.223-2.732A10.851,10.851,0,0,0,46.331,5V2.376A2.383,2.383,0,0,0,43.955,0H41.579A2.383,2.383,0,0,0,39.2,2.376V4.989a8.355,8.355,0,0,0-7.321,9.355A8.713,8.713,0,0,0,38.253,21.428ZM79.282,48.722a4.46,4.46,0,0,0-5.984,0L60.349,59.7a8.636,8.636,0,0,1-5.613,2.079H38.149a2.38,2.38,0,0,1,0-4.752H49.123a4.756,4.756,0,0,0,.238-9.5H26.922a15.877,15.877,0,0,0-10.38,3.905l-6.519,5.6H2.242A2.319,2.319,0,0,0,0,59.4V73.654A2.319,2.319,0,0,0,2.242,76.03H52.271a8.7,8.7,0,0,0,5.613-2.079L79.089,55.983a4.934,4.934,0,0,0,.193-7.261Z" transform="translate(24.02 26.204)" fill="#8c24a3"/>
    </g>
  </g>
</svg>
