<svg xmlns="http://www.w3.org/2000/svg" width="24.621" height="24.1" viewBox="0 0 24.621 24.1">
  <path id="Icon_metro-tools" data-name="Icon metro-tools" d="M29.354,9.578a6.13,6.13,0,0,1-8.689,7.69l-1.7,1.852,1.21,1.215.723-.723a.945.945,0,0,1,1.338,0L28.1,25.535a.945.945,0,0,1,0,1.338l-2.676,2.676a.945.945,0,0,1-1.338,0l-5.863-5.923a.945.945,0,0,1,0-1.338l.66-.66-1.153-1.156L9.625,29.33a1.892,1.892,0,0,1-2.676,0l-.669-.669a1.892,1.892,0,0,1,0-2.676l9.237-7.736L9.382,12.1H7.445L5.2,8.491l1.8-1.808L10.695,8.94l.024,1.9,6.206,6.23,1.806-1.512A6.136,6.136,0,0,1,26,6.24l-3.976,3.921,3.346,3.346,3.983-3.928ZM8.5,26.929a.946.946,0,1,0,0,1.339A.947.947,0,0,0,8.5,26.929Z" transform="translate(-5.202 -5.785)" fill="#8c24a3"/>
</svg>
