<svg xmlns="http://www.w3.org/2000/svg" width="308.626" height="63.703" viewBox="0 0 308.626 63.703">
  <g id="Grupo_860" data-name="Grupo 860" transform="translate(339.965 -377.744)">
    <path id="Trazado_6909" data-name="Trazado 6909" d="M-331.276,431.259l25.181-35.195-4.11-6.4-29.759,41.593Z" fill="#fff"/>
    <path id="Trazado_6910" data-name="Trazado 6910" d="M-301.193,381.221l18.917,29.839h8.366l-18.917-29.839Z" fill="#fff"/>
    <path id="Trazado_6911" data-name="Trazado 6911" d="M-319.1,431.259l18.765-26.228-4.11-6.4-23.343,32.626Z" fill="#fff"/>
    <path id="Trazado_6912" data-name="Trazado 6912" d="M-315.148,377.744-294,411.06h8.368l-21.12-33.316Z" fill="#fff"/>
    <path id="Trazado_6913" data-name="Trazado 6913" d="M-266.121,420.408l5.078-7.1h-41.544l-5.078,7.1h41.544Z" fill="#fff"/>
    <path id="Trazado_6914" data-name="Trazado 6914" d="M-314.75,430.312H-280.9l5.055-7.066h-33.853Z" fill="#fff"/>
    <text id="Energía_Eléctrica" data-name="Energía Eléctrica" transform="translate(-258.338 403.041)" fill="#fff" font-size="27.872" font-family="Arial-BoldMT, Arial" font-weight="700"><tspan x="0" y="0">Energía Eléctrica</tspan></text>
    <text id="GRUPOS_ELECTRÓGENOS" data-name="GRUPOS ELECTRÓGENOS" transform="translate(-227.136 426.904)" fill="#fff" font-size="11.284" font-family="ArialMT, Arial"><tspan x="0" y="0">GRUPOS ELECTRÓGENOS</tspan></text>
    <text id="INGENIERÍA_ELÉCTRICA" data-name="INGENIERÍA ELÉCTRICA" transform="translate(-220.065 439.447)" fill="#fff" font-size="11.284" font-family="ArialMT, Arial"><tspan x="0" y="0">INGENIERÍA ELÉCTRICA</tspan></text>
  </g>
</svg>
