<svg xmlns="http://www.w3.org/2000/svg" width="308.626" height="63.703" viewBox="0 0 308.626 63.703">
  <g id="Grupo_859" data-name="Grupo 859" transform="translate(-147.95 -387.706)">
    <path id="Trazado_6903" data-name="Trazado 6903" d="M156.639,441.221l25.181-35.195-4.11-6.4L147.95,441.221Z" fill="#d92a34"/>
    <path id="Trazado_6904" data-name="Trazado 6904" d="M186.722,391.183l18.917,29.839H214l-18.917-29.839Z" fill="#702078"/>
    <path id="Trazado_6905" data-name="Trazado 6905" d="M168.815,441.221l18.765-26.228-4.11-6.4-23.343,32.625Z" fill="#d92a34"/>
    <path id="Trazado_6906" data-name="Trazado 6906" d="M172.767,387.706l21.145,33.316h8.368l-21.12-33.316Z" fill="#702078"/>
    <path id="Trazado_6907" data-name="Trazado 6907" d="M221.794,430.37l5.078-7.1H185.328l-5.078,7.1h41.544Z" fill="#338350"/>
    <path id="Trazado_6908" data-name="Trazado 6908" d="M173.165,440.273h33.853l5.055-7.066H178.22Z" fill="#338350"/>
    <text id="Energía_Eléctrica" data-name="Energía Eléctrica" transform="translate(229.577 413.002)" fill="#17100d" font-size="27.872" font-family="Arial-BoldMT, Arial" font-weight="700"><tspan x="0" y="0">Energía Eléctrica</tspan></text>
    <text id="GRUPOS_ELECTRÓGENOS" data-name="GRUPOS ELECTRÓGENOS" transform="translate(260.779 436.866)" fill="#17100d" font-size="11.284" font-family="ArialMT, Arial"><tspan x="0" y="0">GRUPOS ELECTRÓGENOS</tspan></text>
    <text id="INGENIERÍA_ELÉCTRICA" data-name="INGENIERÍA ELÉCTRICA" transform="translate(267.85 449.409)" fill="#17100d" font-size="11.284" font-family="ArialMT, Arial"><tspan x="0" y="0">INGENIERÍA ELÉCTRICA</tspan></text>
  </g>
</svg>
